<?xml version="1.0" encoding="UTF-8"?>
<svg id="dossier_fermé" xmlns="http://www.w3.org/2000/svg" version="1.1" viewBox="0 0 56.69 56.69">
  <!-- Generator: Adobe Illustrator 29.1.0, SVG Export Plug-In . SVG Version: 2.1.0 Build 142)  -->
  <defs>
    <style>
      .st0 {
        fill: #1d1d1b;
      }

      .st1 {
        fill: #fff;
      }
    </style>
  </defs>
  <g>
    <path class="st1" d="M20.2,18.38v.59h-3.96c-.36,0-.66.32-.73.75-.01-.05-.02-.11-.02-.16v-1.17c0-.4.26-.73.59-.73h3.53c.06,0,.26.04.42.21.19.21.18.47.17.52Z"/>
    <path class="st0" d="M15.53,21.22l-.28-1.45c-.01-.07-.02-.14-.02-.21v-1.17c0-.55.38-.99.85-.99h3.53c.16.02.41.08.61.3.24.27.25.59.24.7v.84h-4.22c-.22,0-.42.23-.47.53l-.23,1.46ZM19.58,17.91h-3.5c-.18,0-.33.22-.33.47v.47c.14-.09.31-.15.48-.15h3.7v-.35s.01-.19-.1-.32c-.09-.1-.21-.13-.25-.13Z"/>
  </g>
  <g>
    <path class="st1" d="M27.93,19.86v7.28c0,.41-.34.74-.74.74h-10.95c-.41,0-.74-.33-.74-.74v-7.28c0-.05,0-.1.02-.15.07-.34.37-.6.73-.6h10.95c.41,0,.74.34.74.74Z"/>
    <path class="st0" d="M27.19,28.15h-10.95c-.55,0-1.01-.45-1.01-1.01v-7.28c0-.07,0-.14.02-.2.09-.46.51-.8.98-.8h10.95c.55,0,1.01.45,1.01,1.01v7.28c0,.55-.45,1.01-1.01,1.01ZM16.24,19.38c-.23,0-.43.16-.47.39,0,.03-.01.06-.01.1v7.28c0,.27.22.48.48.48h10.95c.27,0,.48-.22.48-.48v-7.28c0-.27-.22-.48-.48-.48h-10.95Z"/>
  </g>
</svg>