<?xml version="1.0" encoding="UTF-8"?>
<svg id="maison" xmlns="http://www.w3.org/2000/svg" version="1.1" viewBox="0 0 56.69 56.69">
  <!-- Generator: Adobe Illustrator 29.1.0, SVG Export Plug-In . SVG Version: 2.1.0 Build 142)  -->
  <defs>
    <style>
      .st0 {
        fill: #1d1d1b;
      }
    </style>
  </defs>
  <path class="st0" d="M32.03,28.3h-2.44l.11-.24c.19-.43.29-.94.29-1.46,0-1.43-.73-2.59-1.63-2.59s-1.64,1.16-1.64,2.59c0,.52.1,1.03.29,1.46l.11.24h-2.44c-.65,0-1.17-.53-1.17-1.17v-7.36c0-.07,0-.14.02-.2v-.06s4.85-4.49,4.85-4.49l.31.29,4.5,4.21v.06c.02.06.03.13.03.19v7.36c0,.65-.53,1.17-1.17,1.17ZM30.11,27.95h1.92c.46,0,.83-.37.83-.83v-7.36s0-.05,0-.07l-4.49-4.2-4.51,4.19s0,.06,0,.08v7.36c0,.46.37.83.83.83h1.92c-.15-.42-.22-.88-.22-1.36,0-1.62.89-2.94,1.99-2.94s1.98,1.32,1.98,2.94c0,.48-.08.94-.22,1.36Z"/>
</svg>