<?xml version="1.0" encoding="UTF-8"?>
<svg id="dossier_ouverts" xmlns="http://www.w3.org/2000/svg" version="1.1" viewBox="0 0 56.69 56.69">
  <!-- Generator: Adobe Illustrator 29.1.0, SVG Export Plug-In . SVG Version: 2.1.0 Build 142)  -->
  <defs>
    <style>
      .st0 {
        fill: #1d1d1b;
      }

      .st1 {
        fill: #fff;
      }
    </style>
  </defs>
  <g>
    <path class="st1" d="M27.16,20.26v6.41c0,.36-.3.66-.66.66h-9.64c-.36,0-.66-.29-.66-.66v-6.41s0-.09.01-.13c.06-.3.33-.53.64-.53h9.64c.36,0,.66.3.66.66Z"/>
    <path class="st0" d="M26.5,27.55h-9.64c-.49,0-.89-.4-.89-.89v-6.41c0-.06,0-.12.02-.18.08-.41.45-.71.87-.71h9.64c.49,0,.89.4.89.89v6.41c0,.49-.4.89-.89.89ZM16.87,19.83c-.2,0-.38.14-.42.34,0,.03,0,.06,0,.08v6.41c0,.23.19.42.42.42h9.64c.23,0,.42-.19.42-.42v-6.41c0-.23-.19-.42-.42-.42h-9.64Z"/>
  </g>
  <g>
    <path class="st1" d="M16.22,20.13s-.01-.09-.01-.14v-1.03c0-.35.23-.64.52-.64h3.11c.05,0,.23.04.36.19.17.19.16.42.15.45v.52h-3.49c-.31,0-.58.29-.64.66Z"/>
    <path class="st0" d="M16.25,21.43l-.25-1.26c-.01-.06-.02-.12-.02-.19v-1.03c0-.48.34-.87.75-.87h3.11c.07,0,.33.04.54.26.25.27.21.6.21.64v.72s-3.72,0-3.72,0c-.19,0-.37.2-.41.47l-.2,1.26ZM19.82,18.54h-3.09c-.15,0-.29.19-.29.41v.42c.13-.08.27-.13.42-.13h3.26v-.29s.02-.18-.09-.3c-.09-.1-.21-.11-.21-.11Z"/>
  </g>
  <g>
    <path class="st1" d="M27.16,22.08v6.41c0,.36-.3.66-.66.66h-9.64c-.36,0-.66-.29-.66-.66v-6.41s0-.09.01-.13c.06-.3.33-.53.64-.53h9.64c.36,0,.66.3.66.66Z"/>
    <path class="st0" d="M26.5,29.37h-9.64c-.49,0-.89-.4-.89-.89v-6.41c0-.06,0-.12.02-.18.08-.41.45-.71.87-.71h9.64c.49,0,.89.4.89.89v6.41c0,.49-.4.89-.89.89ZM16.87,21.65c-.2,0-.38.14-.42.34,0,.03,0,.06,0,.08v6.41c0,.23.19.42.42.42h9.64c.23,0,.42-.19.42-.42v-6.41c0-.23-.19-.42-.42-.42h-9.64Z"/>
  </g>
  <g>
    <rect class="st1" x="17.2" y="20.58" width="8.75" height=".85" rx=".14" ry=".14"/>
    <path class="st0" d="M25.89,21.65h-8.63c-.16,0-.29-.13-.29-.29v-.72c0-.16.13-.29.29-.29h8.63c.16,0,.29.13.29.29v.72c0,.16-.13.29-.29.29ZM17.43,21.19h8.29v-.39h-8.29v.39Z"/>
  </g>
</svg>